# xmcd
#
# Track frame offsets:
#	150
#	15017
#	38069
#	60696
#	79201
#	105541
#	133050
#	157276
#	172644
#	186725
#	216926
#	239040
#
# Disc length: 3473 seconds
#
# Revision: 0
# Processed by: cddbd v1.4PL0 Copyright (c) Steve Scherf et al.
# Submitted via: EasyCDDAExtractor 4.6.9.1
#
DISCID=a30d8f0c
DTITLE=Bob Dylan - Love And Theft
DYEAR=2001
DGENRE=Blues
TTITLE0=Bye And Bye
TTITLE1=Cry A While
TTITLE2=Floater (Too Much To Ask)
TTITLE3=High Water (For Charley Patton)
TTITLE4=Honest With Me
TTITLE5=Lonesome Days Blues
TTITLE6=Mississippi
TTITLE7=Moonlight
TTITLE8=Po' Boy
TTITLE9=Sugar Baby
TTITLE10=Summer Days
TTITLE11=Tweedle Dee and Tweedle Dum
EXTD=
EXTT0=
EXTT1=
EXTT2=
EXTT3=
EXTT4=
EXTT5=
EXTT6=
EXTT7=
EXTT8=
EXTT9=
EXTT10=
EXTT11=
PLAYORDER=
